# xmcd
#
# Track frame offsets:
#	150
#	17524
#	36819
#	53213
#	72741
#	94291
#	114908
#	138753
#	155943
#	173270
#	191503
#	210378
#	223171
#	238294
#	261016
#	283573
#
# Disc length: 4077 seconds
#
# Revision: 0
# Processed by: cddbd v1.5.2PL0 Copyright (c) Steve Scherf et al.
# Submitted via: EZCDAudioConverter 1.1.0.1
#
DISCID=e70feb10
DTITLE=群星 - 情迷薰衣草 [CD6]
DYEAR=2013
DGENRE=Musical
TTITLE0=光良 - 童話
TTITLE1=張學友 - 祝福
TTITLE2=陳潔儀 - 擔心
TTITLE3=黃仲崑 - 有多少愛可以重來
TTITLE4=范逸臣 - I Believe
TTITLE5=王菲 - 天空
TTITLE6=張惠妹 - 解說
TTITLE7=曲格 - 寶貝
TTITLE8=蘇芮 - 是否
TTITLE9=林憶蓮 - 傷痕
TTITLE10=鄧麗君 - 我只在乎你
TTITLE11=張惠妹 - 姊妹
TTITLE12=陳奕迅 - 十年
TTITLE13=邰正宵 - 想你想得好孤寂
TTITLE14=王馨平 - 別問我是誰
TTITLE15=黃大煒 - 你把我灌醉
EXTD=
EXTT0=
EXTT1=
EXTT2=
EXTT3=
EXTT4=
EXTT5=
EXTT6=
EXTT7=
EXTT8=
EXTT9=
EXTT10=
EXTT11=
EXTT12=
EXTT13=
EXTT14=
EXTT15=
PLAYORDER=
